<svg width="103" height="125" viewBox="0 0 103 125" fill="none" xmlns="http://www.w3.org/2000/svg">
<g filter="url(#filter0_d)">
<path d="M51.2556 16.4961C35.1248 16.4961 22 29.7746 22 46.096C22 50.3532 22.8613 54.4179 24.5586 58.1781C31.8733 74.3719 45.8976 91.4691 50.0226 96.3229C50.3317 96.6858 50.7822 96.8948 51.2564 96.8948C51.7305 96.8948 52.1811 96.6858 52.4901 96.3229C56.6135 91.47 70.6378 74.3736 77.9549 58.1781C79.6531 54.4179 80.5135 50.3532 80.5135 46.096C80.5119 29.7746 67.3871 16.4961 51.2556 16.4961ZM51.2556 61.4702C42.8763 61.4702 36.0585 54.5726 36.0585 46.0951C36.0585 37.6169 42.8763 30.7192 51.2556 30.7192C59.6349 30.7192 66.4526 37.6169 66.4526 46.0951C66.4534 54.5726 59.6357 61.4702 51.2556 61.4702Z" fill="#BF202D"/>
<path d="M51.2556 16.4961C35.1248 16.4961 22 29.7746 22 46.096C22 50.3532 22.8613 54.4179 24.5586 58.1781C31.8733 74.3719 45.8976 91.4691 50.0226 96.3229C50.3317 96.6858 50.7822 96.8948 51.2564 96.8948C51.7305 96.8948 52.1811 96.6858 52.4901 96.3229C56.6135 91.47 70.6378 74.3736 77.9549 58.1781C79.6531 54.4179 80.5135 50.3532 80.5135 46.096C80.5119 29.7746 67.3871 16.4961 51.2556 16.4961ZM51.2556 61.4702C42.8763 61.4702 36.0585 54.5726 36.0585 46.0951C36.0585 37.6169 42.8763 30.7192 51.2556 30.7192C59.6349 30.7192 66.4526 37.6169 66.4526 46.0951C66.4534 54.5726 59.6357 61.4702 51.2556 61.4702Z" fill="url(#paint0_linear)" fill-opacity="0.74"/>
<path d="M23.6472 58.5896L23.6473 58.5898C31.0254 74.9241 45.1339 92.1147 49.2606 96.9705L49.2613 96.9713C49.759 97.5556 50.4871 97.8948 51.2564 97.8948C52.0257 97.8948 52.7538 97.5556 53.2514 96.9713L53.2522 96.9704C57.3772 92.1155 71.4857 74.9257 78.8663 58.5899L78.8663 58.5897C80.6248 54.6959 81.5135 50.4904 81.5135 46.096V46.0959C81.5119 29.2334 67.9504 15.4961 51.2556 15.4961C34.5616 15.4961 21 29.2334 21 46.096C21 50.4905 21.8896 54.6959 23.6472 58.5896ZM65.4526 46.0951V46.0952C65.4534 54.0313 59.0725 60.4702 51.2556 60.4702C43.4395 60.4702 37.0585 54.0313 37.0585 46.0951C37.0585 38.1581 43.4395 31.7192 51.2556 31.7192C59.0716 31.7192 65.4526 38.1581 65.4526 46.0951Z" stroke="white" stroke-width="2"/>
</g>
<defs>
<filter id="filter0_d" x="0" y="0.496094" width="102.514" height="124.399" filterUnits="userSpaceOnUse" color-interpolation-filters="sRGB">
<feFlood flood-opacity="0" result="BackgroundImageFix"/>
<feColorMatrix in="SourceAlpha" type="matrix" values="0 0 0 0 0 0 0 0 0 0 0 0 0 0 0 0 0 0 127 0"/>
<feOffset dy="6"/>
<feGaussianBlur stdDeviation="10"/>
<feColorMatrix type="matrix" values="0 0 0 0 0 0 0 0 0 0 0 0 0 0 0 0 0 0 0.2 0"/>
<feBlend mode="normal" in2="BackgroundImageFix" result="effect1_dropShadow"/>
<feBlend mode="normal" in="SourceGraphic" in2="effect1_dropShadow" result="shape"/>
</filter>
<linearGradient id="paint0_linear" x1="80.7594" y1="27.5075" x2="22.736" y2="27.4196" gradientUnits="userSpaceOnUse">
<stop stop-color="#F45C1B"/>
<stop offset="1" stop-color="#AA4141" stop-opacity="0"/>
</linearGradient>
</defs>
</svg>
