<svg width="104" height="125" viewBox="0 0 104 125" fill="none" 
    xmlns="http://www.w3.org/2000/svg">
    <g filter="url(#filter0_d)">
        <g filter="url(#filter1_d)">
            <path d="M22.625 46.0344C22.625 29.9021 35.7498 16.7773 51.8806 16.7773C68.0121 16.7773 81.137 29.9021 81.1385 46.0344C81.1385 50.2424 80.2781 54.26 78.58 57.9768C71.2628 73.9849 57.2385 90.8833 53.1151 95.6799C52.8061 96.0386 52.3555 96.2454 51.8814 96.2454C51.4072 96.2454 50.9567 96.0386 50.6476 95.6799C46.5226 90.8823 32.4983 73.9832 25.1836 57.9768C23.4863 54.26 22.625 50.2424 22.625 46.0344Z" fill="#A61744"/>
            <path d="M82.1385 46.0344V46.0343C82.1369 29.3498 68.5645 15.7773 51.8806 15.7773C35.1975 15.7773 21.625 29.3498 21.625 46.0344C21.625 50.3815 22.5153 54.5412 24.274 58.3922L24.2741 58.3924C31.6532 74.5398 45.7628 91.5325 49.8894 96.3319L49.8901 96.3327C50.389 96.9117 51.1161 97.2454 51.8814 97.2454C52.6467 97.2454 53.3738 96.9117 53.8727 96.3327L53.8734 96.3318C57.9983 91.5335 72.1079 74.5416 79.4894 58.3925L79.4895 58.3924C81.2491 54.5411 82.1385 50.3814 82.1385 46.0344Z" stroke="white" stroke-width="2"/>
        </g>
        <circle cx="51.8782" cy="45.9837" r="22.6555" fill="white"/>
        <path d="M36.3672 58.5938H67.0339" stroke="#A61744" stroke-width="1.5" stroke-linecap="round" stroke-linejoin="round"/>
        <path d="M45.6992 58.5931V35.2833C45.6992 34.5681 46.2962 33.9883 47.0326 33.9883H56.3659C57.1023 33.9883 57.6992 34.5681 57.6992 35.2833V58.5931" stroke="#A61744" stroke-width="1.5" stroke-linecap="round" stroke-linejoin="round"/>
        <path d="M65.7005 58.5944V46.292C65.7005 45.9344 65.402 45.6445 65.0339 45.6445H61.0339C60.6657 45.6445 60.3672 45.9344 60.3672 46.292V58.5944" stroke="#A61744" stroke-width="1.5" stroke-linecap="round" stroke-linejoin="round"/>
        <path d="M43.0326 58.5944V46.292C43.0326 45.9344 42.7341 45.6445 42.3659 45.6445H38.3659C37.9977 45.6445 37.6992 45.9344 37.6992 46.292V58.5944" stroke="#A61744" stroke-width="1.5" stroke-linecap="round" stroke-linejoin="round"/>
        <path d="M41.6992 45.6423V44.3477" stroke="#A61744" stroke-width="1.5" stroke-linecap="round" stroke-linejoin="round"/>
        <path d="M61.6992 45.6423V44.3477" stroke="#A61744" stroke-width="1.5" stroke-linecap="round" stroke-linejoin="round"/>
        <path d="M53.6992 33.9876V32.0457C53.6992 31.6882 53.4007 31.3984 53.0326 31.3984H50.3659C49.9977 31.3984 49.6992 31.6882 49.6992 32.0457V33.9876" stroke="#A61744" stroke-width="1.5" stroke-linecap="round" stroke-linejoin="round"/>
        <path d="M52.3672 31.3978V28.8086" stroke="#A61744" stroke-width="1.5" stroke-linecap="round" stroke-linejoin="round"/>
        <path d="M48.3672 37.875H55.0339" stroke="#A61744" stroke-width="1.5" stroke-linecap="round" stroke-linejoin="round"/>
        <path d="M48.3672 41.7578H55.0339" stroke="#A61744" stroke-width="1.5" stroke-linecap="round" stroke-linejoin="round"/>
        <path d="M48.3672 45.6445H55.0339" stroke="#A61744" stroke-width="1.5" stroke-linecap="round" stroke-linejoin="round"/>
        <path d="M48.3672 49.5273H55.0339" stroke="#A61744" stroke-width="1.5" stroke-linecap="round" stroke-linejoin="round"/>
        <path d="M48.3672 53.4141H55.0339" stroke="#A61744" stroke-width="1.5" stroke-linecap="round" stroke-linejoin="round"/>
    </g>
    <defs>
        <filter id="filter0_d" x="0.625" y="0.777344" width="102.514" height="123.468" filterUnits="userSpaceOnUse" color-interpolation-filters="sRGB">
            <feGaussianBlur stdDeviation="10"/>
            <feColorMatrix type="matrix" values="0 0 0 0 0 0 0 0 0 0 0 0 0 0 0 0 0 0 0.2 0"/>
            <feBlend mode="normal" in2="BackgroundImageFix" result="effect1_dropShadow"/>
            <feBlend mode="normal" in="SourceGraphic" in2="effect1_dropShadow" result="shape"/>
        </filter>
        <filter id="filter1_d" x="0.625" y="0.777344" width="102.514" height="123.468" filterUnits="userSpaceOnUse" color-interpolation-filters="sRGB">
            <feFlood flood-opacity="0" result="BackgroundImageFix"/>
            <feColorMatrix in="SourceAlpha" type="matrix" values="0 0 0 0 0 0 0 0 0 0 0 0 0 0 0 0 0 0 127 0"/>
            <feOffset dy="6"/>
            <feGaussianBlur stdDeviation="10"/>
            <feColorMatrix type="matrix" values="0 0 0 0 0 0 0 0 0 0 0 0 0 0 0 0 0 0 0.2 0"/>
            <feBlend mode="normal" in2="BackgroundImageFix" result="effect1_dropShadow"/>
            <feBlend mode="normal" in="SourceGraphic" in2="effect1_dropShadow" result="shape"/>
        </filter>
    </defs>
</svg>
